HIERARCHY
ROOT ui
{
	 OFFSET 0 0 0
	 CHANNELS 3 XPosition YPosition Z Position
	 EndSite
	 {
	 OFFSET 0 -1 0
	 }
}
ROOT li
{
	 OFFSET 0 0 0
	 CHANNELS 3 XPosition YPosition Z Position
	 EndSite
	 {
	 OFFSET 0 -1 0
	 }
}
ROOT ul
{
	 OFFSET 0 0 0
	 CHANNELS 3 XPosition YPosition Z Position
	 EndSite
	 {
	 OFFSET 0 -1 0
	 }
}
ROOT ll
{
	 OFFSET 0 0 0
	 CHANNELS 3 XPosition YPosition Z Position
	 EndSite
	 {
	 OFFSET 0 -1 0
	 }
}
ROOT tt
{
	 OFFSET 0 0 0
	 CHANNELS 3 XPosition YPosition Z Position
	 EndSite
	 {
	 OFFSET 0 -1 0
	 }
}
ROOT tb
{
	 OFFSET 0 0 0
	 CHANNELS 3 XPosition YPosition Z Position
	 EndSite
	 {
	 OFFSET 0 -1 0
	 }
}
ROOT td
{
	 OFFSET 0 0 0
	 CHANNELS 3 XPosition YPosition Z Position
	 EndSite
	 {
	 OFFSET 0 -1 0
	 }
}
ROOT v
{
	 OFFSET 0 0 0
	 CHANNELS 3 XPosition YPosition Z Position
	 EndSite
	 {
	 OFFSET 0 -1 0
	 }
}
ROOT bn
{
	 OFFSET 0 0 0
	 CHANNELS 3 XPosition YPosition Z Position
	 EndSite
	 {
	 OFFSET 0 -1 0
	 }
}
MOTION
Frames: 10
Frame Time: 0.002
0.002264288902282715	-8.549320101737977E-4	0		0.44070684814453126	-2.39727490234375	0		-1.169001953125	3.756769895553589E-4	0		-0.836939208984375	-2.67973291015625	0		1.101853759765625	-0.65664453125	0		2.7466494140625	-0.14835194396972656	0		4.32124169921875	-0.005578855991363526	0		5.57533203125	0.11836709594726562	0		-0.24506304931640624	5.92617041015625	0		
4.5347100496292113E-4	0.0067811570167541505	0		0.45442681884765623	-2.402031005859375	0		-1.0838121337890625	0.00715159797668457	0		-0.8001356811523438	-2.6799033203125	0		1.110739501953125	-0.6603425903320312	0		2.7725498046875	-0.15356599426269532	0		4.30820849609375	-0.008045259475708008	0		5.5753056640625	0.11550621795654296	0		-0.2151285705566406	5.945126953125	0		
0.011517131805419922	0.0081280517578125	0		0.45939108276367185	-2.3965859375	0		-1.15366015625	0.013410785675048827	0		-0.8280948486328125	-2.669615234375	0		1.115864501953125	-0.65394970703125	0		2.778075927734375	-0.13130909729003906	0		4.3206767578125	0.010932653427124024	0		5.5853330078125	0.11443377685546875	0		-0.19943679809570314	5.95339892578125	0		
0.005393345832824707	8.687599897384643E-4	0		0.47128298950195313	-2.3952890625	0		-1.0837576904296875	0.006519804000854492	0		-0.7964325561523438	-2.67767041015625	0		1.106917236328125	-0.6512279052734375	0		2.75390087890625	-0.1403714599609375	0		4.32375439453125	0.012138777732849122	0		5.5696044921875	0.12397142028808594	0		-0.21512730407714845	5.94538232421875	0		
5.506799817085266E-4	0.005597970008850098	0		0.44418136596679686	-2.394093017578125	0		-1.1617401123046875	0.00598724889755249	0		-0.8463671264648438	-2.6678623046875	0		1.1048448486328124	-0.6546446533203125	0		2.737937255859375	-0.140590576171875	0		4.3244794921875	-0.0025765869617462157	0		5.57547265625	0.11505062103271485	0		-0.24312313842773436	5.92465625	0		
0.005485292911529541	1.1997099965810776E-4	0		0.49287210083007815	-2.4036025390625	0		-1.091822265625	-8.91484022140503E-4	0		-0.777677490234375	-2.676739501953125	0		1.1048494873046875	-0.6550855712890625	0		2.7597890625	-0.14964218139648439	0		4.30871533203125	0.005124514102935791	0		5.5697138671875	0.12243842315673828	0		-0.24266850280761718	5.9243076171875	0		
0.005537571907043457	-2.2537800669670104E-4	0		0.4537581176757812	-2.404088134765625	0		-1.1575701904296876	0.008338417053222656	0		-0.8348270874023438	-2.677732421875	0		1.10485986328125	-0.6555011596679687	0		2.77098876953125	-0.1434165496826172	0		4.31458349609375	-0.0036307260990142824	0		5.5755439453125	0.11160313415527344	0		-0.2127885284423828	5.943310546875	0		
7.034599781036377E-4	0.00456558609008789	0		0.4728902587890625	-2.39487451171875	0		-1.0835618896484376	0.005390874862670899	0		-0.8298218994140625	-2.673120849609375	0		1.106939453125	-0.6529348754882812	0		2.747013916015625	-0.144352294921875	0		4.31777001953125	0.0017223470211029052	0		5.5698310546875	0.12108675384521485	0		-0.21336428833007812	5.94402392578125	0		
7.456889748573303E-4	0.004269093990325928	0		0.45462411499023436	-2.40278125	0		-1.0835196533203124	0.0051529078483581545	0		-0.7970476684570312	-2.67912841796875	0		1.1048779296875	-0.656244384765625	0		2.774178466796875	-0.13941824340820314	0		4.319857421875	0.0031464059352874756	0		5.5756943359375	0.11235406494140625	0		-0.21202467346191406	5.94271630859375	0		
0.005656830787658692	-0.00111401104927063	0		0.49250103759765623	-2.404946533203125	0		-1.0916510009765625	-0.0018777669668197633	0		-0.8120092163085938	-2.673015625	0		1.1048731689453124	-0.6565676879882812	0		2.76715478515625	-0.14166152954101563	0		4.3147021484375	-0.005216723918914795	0		5.57572705078125	0.11181253051757813	0		-0.24115966796875	5.92312939453125	0		
